<svg xmlns="http://www.w3.org/2000/svg" width="500" height="500" viewBox="0 0 500 500"><rect width="500" height="500" rx="18" fill="#fff"/><g fill="none" stroke="#280068" stroke-width="8" stroke-linecap="round" stroke-linejoin="round"><path d="M110 255c-31-5-47-28-42-55 5-29 28-44 55-43 7-37 37-63 74-62 24 0 43 9 58 26 15-18 35-27 60-26 38 1 67 27 73 64 29 2 50 24 50 53 0 27-19 49-46 54l-10 111H126l-12-111z"/><path d="M126 319h256M132 348h244M141 377h225"/></g><text x="250" y="252" text-anchor="middle" fill="#280068" font-family="Georgia,serif" font-size="74" font-weight="900" transform="rotate(-6 250 252)">SALIM</text><rect x="126" y="326" width="256" height="38" rx="19" fill="#fff" opacity=".98"/><text x="250" y="351" text-anchor="middle" fill="#280068" font-family="Arial,sans-serif" font-size="18" font-weight="700" letter-spacing=".3">Est. in catering since 1972</text></svg>